<svg id="Layer_1" data-name="Layer 1" xmlns="http://www.w3.org/2000/svg" viewBox="0 0 443.66 93.62"><defs><style>.cls-1{fill:none;stroke:#fff;stroke-miterlimit:10;stroke-width:6px;}.cls-2{fill:#fff;}.cls-3{fill:#010101;}</style></defs><title>black</title><circle cx="44.29" cy="46.87" r="44"/><path class="cls-1" d="M23.19,20.54a33.44,33.44,0,0,0-12.55,26c0,17.09,14,33.29,33.29,33.29A33.38,33.38,0,0,0,77.22,46.58a32,32,0,0,0-12.55-26"/><polygon class="cls-2" points="40.28 12.54 30.79 38.1 40.28 38.1 34.26 66.03 57.08 31.35 44.11 31.35 51.23 12.54 40.28 12.54"/><path class="cls-3" d="M158.67,66.09a20.94,20.94,0,0,1-3,3.63,27.58,27.58,0,0,1-5,3.85,31.29,31.29,0,0,1-6.77,3.06,27.5,27.5,0,0,1-8.45,1.24,30.38,30.38,0,0,1-12-2.31,27.48,27.48,0,0,1-9.35-6.42A29.42,29.42,0,0,1,108,59.4a33.74,33.74,0,0,1-2.18-12.27A33.57,33.57,0,0,1,108,35a30.87,30.87,0,0,1,6.1-9.92,28,28,0,0,1,9.39-6.69A29.63,29.63,0,0,1,135.61,16a28.6,28.6,0,0,1,8.46,1.16A28.11,28.11,0,0,1,150.61,20a25.76,25.76,0,0,1,4.81,3.77,27.91,27.91,0,0,1,3.25,3.9l-6.06,5.13a35.21,35.21,0,0,0-2.53-3.14,17.55,17.55,0,0,0-3.52-3,20.6,20.6,0,0,0-4.72-2.21,19.47,19.47,0,0,0-6.14-.89,20,20,0,0,0-8.77,1.86,19.74,19.74,0,0,0-6.58,5.05,22.33,22.33,0,0,0-4.14,7.44,28.24,28.24,0,0,0-1.43,9,27,27,0,0,0,1.47,9,22.26,22.26,0,0,0,4.14,7.31,19,19,0,0,0,6.5,4.87,20,20,0,0,0,8.55,1.77,20.77,20.77,0,0,0,6.89-1,19.82,19.82,0,0,0,4.9-2.44,18.77,18.77,0,0,0,3.29-2.88c.86-1,1.59-1.78,2.18-2.43Z"/><path class="cls-3" d="M165.34,76.45V37.83c0-.53,0-1.38-.09-2.57h7.66l.27,6.65a20.06,20.06,0,0,1,1.87-2.35,13.67,13.67,0,0,1,2.8-2.35,17.44,17.44,0,0,1,3.83-1.81,16.94,16.94,0,0,1,7.48-.58,12.29,12.29,0,0,1,2.09.53l-1.78,7.44a11.87,11.87,0,0,0-12.64,3.06,13.08,13.08,0,0,0-3.47,8.9v21.7Z"/><path class="cls-3" d="M232.73,70.43a25.19,25.19,0,0,1-2.14,2,17.71,17.71,0,0,1-3.69,2.39,28.58,28.58,0,0,1-5.34,2,26.57,26.57,0,0,1-7,.84,23.45,23.45,0,0,1-8.81-1.6,19.47,19.47,0,0,1-6.86-4.51,20.09,20.09,0,0,1-4.4-7,25.06,25.06,0,0,1-1.56-9,23.35,23.35,0,0,1,1.51-8.46,20,20,0,0,1,4.28-6.82A20.29,20.29,0,0,1,213.59,34a19.25,19.25,0,0,1,9.17,2,18.25,18.25,0,0,1,6.27,5.4,23,23,0,0,1,3.61,7.71,34.93,34.93,0,0,1,1.16,9H201.13a12.42,12.42,0,0,0,1.2,5,12.8,12.8,0,0,0,3,4,14.32,14.32,0,0,0,4.27,2.65,13.24,13.24,0,0,0,5.08,1,18.52,18.52,0,0,0,8.63-1.77,17.46,17.46,0,0,0,4.9-3.46Zm-7.21-18.16a13.38,13.38,0,0,0-3.38-8.15c-2-2.24-4.87-3.37-8.55-3.37a12.84,12.84,0,0,0-5.12,1,12.23,12.23,0,0,0-3.87,2.57A11.47,11.47,0,0,0,202.11,48a12,12,0,0,0-1,4.3Z"/><path class="cls-3" d="M242.16,76.45V37.88c0-.56,0-1.43-.09-2.62h7.66l.27,6.2a30.41,30.41,0,0,1,2-2.34,13.42,13.42,0,0,1,2.84-2.35,16.7,16.7,0,0,1,4-1.77,17.15,17.15,0,0,1,5.11-.71q8.1,0,12,4.69t3.92,12.76V76.45h-8V52.36c0-3.84-.84-6.66-2.5-8.46a9.08,9.08,0,0,0-7-2.7,10.4,10.4,0,0,0-9.48,5.09,16.36,16.36,0,0,0-2,5.14,27.46,27.46,0,0,0-.63,5.89V76.45Z"/><path class="cls-3" d="M292.72,66.09a17.16,17.16,0,0,0,5.34,3.54A18.36,18.36,0,0,0,305.27,71,15.33,15.33,0,0,0,312,69.67a4.22,4.22,0,0,0,2.67-4,4.8,4.8,0,0,0-.58-2.43,5.05,5.05,0,0,0-2-1.82,16.7,16.7,0,0,0-3.65-1.46q-2.26-.66-5.65-1.46A36,36,0,0,1,298,57.05a15.82,15.82,0,0,1-4.23-2.35,11.74,11.74,0,0,1-3-3.54,10.13,10.13,0,0,1-1.15-5A9.89,9.89,0,0,1,291,40.89a12.18,12.18,0,0,1,3.69-3.81,17.78,17.78,0,0,1,5.21-2.35,22.58,22.58,0,0,1,6-.8,26.38,26.38,0,0,1,9,1.38,20.77,20.77,0,0,1,6.63,3.85l-4.36,5.49a16,16,0,0,0-4.67-2.83A17.09,17.09,0,0,0,306,40.67a13,13,0,0,0-6.15,1.24A4.26,4.26,0,0,0,297.53,46c0,1.77,1,3.09,3.07,3.94a51.22,51.22,0,0,0,8.06,2.44A49.79,49.79,0,0,1,314.13,54a16.57,16.57,0,0,1,4.45,2.39,10.66,10.66,0,0,1,3,3.58,11,11,0,0,1,1.11,5.14,10.28,10.28,0,0,1-1.42,5.45,12.51,12.51,0,0,1-3.83,3.94A17.93,17.93,0,0,1,312,76.89a26.19,26.19,0,0,1-6.5.8q-11.74,0-17.62-6.29Z"/><path class="cls-3" d="M351.47,77.69A22.05,22.05,0,0,1,342.66,76a20.92,20.92,0,0,1-6.9-4.74,22.29,22.29,0,0,1-4.54-7,22.51,22.51,0,0,1,0-16.92,22.53,22.53,0,0,1,4.54-7,20.92,20.92,0,0,1,6.9-4.74,22.05,22.05,0,0,1,8.81-1.73,21.79,21.79,0,0,1,8.72,1.73,21.34,21.34,0,0,1,6.95,4.74,22.11,22.11,0,0,1,4.58,7,22.09,22.09,0,0,1-4.58,23.87A21.34,21.34,0,0,1,360.19,76,21.79,21.79,0,0,1,351.47,77.69Zm0-6.91a12.89,12.89,0,0,0,5.79-1.28,13.75,13.75,0,0,0,4.36-3.37,14.73,14.73,0,0,0,2.71-4.78,16.66,16.66,0,0,0,.94-5.54,16.45,16.45,0,0,0-.94-5.45,14.53,14.53,0,0,0-2.76-4.82,13.85,13.85,0,0,0-4.36-3.41,12.47,12.47,0,0,0-5.74-1.29,12.8,12.8,0,0,0-5.79,1.29,13.72,13.72,0,0,0-4.36,3.36,14.77,14.77,0,0,0-2.71,4.79,16.86,16.86,0,0,0-.94,5.53,16.5,16.5,0,0,0,.94,5.49,14.8,14.8,0,0,0,2.76,4.79,14.15,14.15,0,0,0,4.36,3.41A12.59,12.59,0,0,0,351.47,70.78Z"/><path class="cls-3" d="M393,32.61q0-5.4,2.09-7.62a7.3,7.3,0,0,1,5.57-2.22,10.82,10.82,0,0,1,7,2.75l4-5.14a15.57,15.57,0,0,0-5.83-3.5,21.1,21.1,0,0,0-6.45-1,15.89,15.89,0,0,0-5.43.93,12.71,12.71,0,0,0-4.58,2.87,14,14,0,0,0-3.21,5A19.71,19.71,0,0,0,385,31.9v3.36h-7.48v6.65H385V76.45h8V41.91h9.28V35.26H393Z"/><path class="cls-3" d="M435.14,68a11.81,11.81,0,0,1-3,2.13,9.09,9.09,0,0,1-3.83.71A5.44,5.44,0,0,1,423.88,69q-1.56-1.86-1.56-6.82V41.91h12.11V35.26H422.32V21.8h-8V35.26h-12l3.34,3.33-3.34,3.32h12V63q0,7.53,3.07,11.07T427,77.6a17.05,17.05,0,0,0,6.46-1.11,16.85,16.85,0,0,0,5.29-3.58Z"/></svg>