<svg id="Layer_1" data-name="Layer 1" xmlns="http://www.w3.org/2000/svg" viewBox="0 0 441.72 91.7"><defs><style>.cls-1{fill:none;stroke:#f8ec20;stroke-miterlimit:10;stroke-width:6px;}.cls-2{fill:#f8ec20;}.cls-3{fill:#010101;}</style></defs><title>logo</title><circle cx="44.14" cy="45.66" r="44"/><path class="cls-1" d="M23,19.33A33.47,33.47,0,0,0,10.49,45.38c0,17.08,14,33.29,33.29,33.29A33.38,33.38,0,0,0,77.07,45.38,32,32,0,0,0,64.52,19.33"/><polygon class="cls-2" points="40.13 11.34 30.64 36.9 40.13 36.9 34.1 64.83 56.92 30.14 43.96 30.14 51.08 11.34 40.13 11.34"/><path class="cls-3" d="M158.51,64.88a20.47,20.47,0,0,1-3,3.64,27.67,27.67,0,0,1-5,3.85,31.2,31.2,0,0,1-6.76,3.06,27.53,27.53,0,0,1-8.46,1.23,30.41,30.41,0,0,1-12-2.3,27.44,27.44,0,0,1-9.34-6.42,29.36,29.36,0,0,1-6.1-9.74,33.74,33.74,0,0,1-2.18-12.27,33.57,33.57,0,0,1,2.18-12.13,30.7,30.7,0,0,1,6.1-9.92,28,28,0,0,1,9.39-6.69,29.63,29.63,0,0,1,12.15-2.44,29,29,0,0,1,8.46,1.15,28.54,28.54,0,0,1,6.54,2.88,25.35,25.35,0,0,1,4.81,3.77,27.75,27.75,0,0,1,3.24,3.89l-6,5.14a37.08,37.08,0,0,0-2.53-3.14,17.83,17.83,0,0,0-3.52-3,20.38,20.38,0,0,0-4.72-2.21,19.51,19.51,0,0,0-6.14-.89,20,20,0,0,0-8.77,1.86,19.78,19.78,0,0,0-6.59,5.05,22.14,22.14,0,0,0-4.14,7.44,28.23,28.23,0,0,0-1.42,9,27,27,0,0,0,1.47,9,22.37,22.37,0,0,0,4.14,7.31,18.86,18.86,0,0,0,6.5,4.87,20.11,20.11,0,0,0,8.54,1.77,21.1,21.1,0,0,0,6.9-1,20.18,20.18,0,0,0,4.9-2.44,19.19,19.19,0,0,0,3.29-2.88c.86-1,1.59-1.78,2.18-2.43Z"/><path class="cls-3" d="M165.19,75.25V36.63c0-.53,0-1.39-.09-2.57h7.66L173,40.7a22.4,22.4,0,0,1,1.87-2.34A13.74,13.74,0,0,1,177.7,36a17.91,17.91,0,0,1,3.83-1.82,17,17,0,0,1,7.47-.57,12.06,12.06,0,0,1,2.09.53l-1.78,7.44a12.79,12.79,0,0,0-8.85.36,11.37,11.37,0,0,0-3.79,2.7,13.12,13.12,0,0,0-2.53,4,12.68,12.68,0,0,0-.94,4.87v21.7Z"/><path class="cls-3" d="M232.58,69.23a25.19,25.19,0,0,1-2.14,2,17.54,17.54,0,0,1-3.7,2.39,28.06,28.06,0,0,1-5.34,2,26.44,26.44,0,0,1-7,.84,23.5,23.5,0,0,1-8.82-1.6,19.43,19.43,0,0,1-6.85-4.51,20.26,20.26,0,0,1-4.41-7,25.1,25.1,0,0,1-1.55-9,23.32,23.32,0,0,1,1.51-8.46,20.18,20.18,0,0,1,4.27-6.82,20.65,20.65,0,0,1,6.54-4.57,20.33,20.33,0,0,1,8.33-1.68,19.28,19.28,0,0,1,9.17,2,18.25,18.25,0,0,1,6.27,5.4A23.39,23.39,0,0,1,232.49,48a34.92,34.92,0,0,1,1.15,9H201a12.27,12.27,0,0,0,1.21,5,12.65,12.65,0,0,0,3,4,14.53,14.53,0,0,0,4.27,2.65,13.36,13.36,0,0,0,5.08,1,18.55,18.55,0,0,0,8.63-1.77,17.82,17.82,0,0,0,4.9-3.46Zm-7.21-18.16A13.31,13.31,0,0,0,222,42.92c-2-2.24-4.86-3.37-8.54-3.37a12.84,12.84,0,0,0-5.12,1,12.12,12.12,0,0,0-3.87,2.57,11.67,11.67,0,0,0-2.5,3.67,12.18,12.18,0,0,0-1,4.3Z"/><path class="cls-3" d="M242,75.25V36.68c0-.57,0-1.44-.09-2.62h7.66l.26,6.2c.54-.71,1.19-1.49,2-2.35a13.51,13.51,0,0,1,2.85-2.34,16.88,16.88,0,0,1,9.08-2.48q8.1,0,12,4.69t3.91,12.76V75.25h-8V51.16q0-5.76-2.49-8.46a9.08,9.08,0,0,0-7-2.7,10.37,10.37,0,0,0-9.48,5.09,16.52,16.52,0,0,0-2,5.14,28.1,28.1,0,0,0-.62,5.89V75.25Z"/><path class="cls-3" d="M292.57,64.88a16.79,16.79,0,0,0,5.34,3.55,18.36,18.36,0,0,0,7.21,1.33,15.33,15.33,0,0,0,6.68-1.29,4.22,4.22,0,0,0,2.67-4,4.91,4.91,0,0,0-.58-2.43,5.12,5.12,0,0,0-2-1.82,16.91,16.91,0,0,0-3.65-1.46c-1.51-.44-3.4-.93-5.65-1.46a36,36,0,0,1-4.76-1.42,15.51,15.51,0,0,1-4.23-2.35,11.47,11.47,0,0,1-3-3.54,10.18,10.18,0,0,1-1.16-5,9.89,9.89,0,0,1,1.38-5.27,12.1,12.1,0,0,1,3.7-3.81,17.84,17.84,0,0,1,5.2-2.35,22.63,22.63,0,0,1,6-.8,26.44,26.44,0,0,1,9,1.38A20.77,20.77,0,0,1,321.41,38l-4.36,5.49a15.88,15.88,0,0,0-4.67-2.83,17.1,17.1,0,0,0-6.55-1.16,13.09,13.09,0,0,0-6.14,1.24,4.28,4.28,0,0,0-2.31,4.08c0,1.77,1,3.09,3.07,3.94a51.39,51.39,0,0,0,8.05,2.44A49.36,49.36,0,0,1,314,52.79a17,17,0,0,1,4.45,2.4,10.26,10.26,0,0,1,4.14,8.72,10.31,10.31,0,0,1-1.43,5.45,12.47,12.47,0,0,1-3.82,3.94,18.14,18.14,0,0,1-5.52,2.39,26.25,26.25,0,0,1-6.5.8q-11.74,0-17.63-6.29Z"/><path class="cls-3" d="M351.32,76.49a22,22,0,0,1-8.81-1.73,20.82,20.82,0,0,1-6.9-4.74,22.12,22.12,0,0,1-4.54-6.95,22.51,22.51,0,0,1,0-16.92,22.35,22.35,0,0,1,4.54-6.95,20.82,20.82,0,0,1,6.9-4.74,23.07,23.07,0,0,1,17.53,0A21.3,21.3,0,0,1,367,39.2a22.14,22.14,0,0,1,4.59,6.95A22.05,22.05,0,0,1,367,70,21.3,21.3,0,0,1,360,74.76,21.82,21.82,0,0,1,351.32,76.49Zm0-6.91a12.88,12.88,0,0,0,5.78-1.28,13.79,13.79,0,0,0,4.37-3.37,14.73,14.73,0,0,0,2.71-4.78,16.91,16.91,0,0,0,.93-5.54,16.69,16.69,0,0,0-.93-5.45,14.53,14.53,0,0,0-2.76-4.82,14,14,0,0,0-4.36-3.41,12.5,12.5,0,0,0-5.74-1.29,12.77,12.77,0,0,0-5.79,1.29,13.72,13.72,0,0,0-4.36,3.36,14.49,14.49,0,0,0-2.71,4.79,16.61,16.61,0,0,0-.94,5.53,16.25,16.25,0,0,0,.94,5.49,14.8,14.8,0,0,0,2.75,4.78,14.07,14.07,0,0,0,4.37,3.42A12.59,12.59,0,0,0,351.32,69.58Z"/><path class="cls-3" d="M392.89,31.4c0-3.6.69-6.14,2.09-7.61a7.28,7.28,0,0,1,5.56-2.22,10.78,10.78,0,0,1,7,2.75l4-5.14a15.57,15.57,0,0,0-5.83-3.5,21.21,21.21,0,0,0-6.45-1,15.89,15.89,0,0,0-5.43.93,12.92,12.92,0,0,0-4.59,2.88,14.07,14.07,0,0,0-3.2,5,19.67,19.67,0,0,0-1.2,7.22v3.36H377.4V40.7h7.48V75.25h8V40.7h9.27V34.06h-9.27Z"/><path class="cls-3" d="M435,66.83A11.68,11.68,0,0,1,432,69a9.06,9.06,0,0,1-3.83.71,5.43,5.43,0,0,1-4.4-1.86q-1.56-1.86-1.56-6.82V40.7h12.11V34.06H422.17V20.6h-8V34.06h-12l3.34,3.33-3.33,3.31h12V61.79c0,5,1,8.71,3.07,11.07s5.27,3.54,9.66,3.54a15.35,15.35,0,0,0,11.75-4.7Z"/></svg>